==================== SKYLAR GREY - DANCE WITHOUT YOU HD 1080P =================

Format                           : MPEG-4
Format profile                   : Base Media / Version 2
Codec ID                         : mp42
File size                        : 110 MiB
Duration                         : 2mn 49s
Overall bit rate                 : 5 454 Kbps
Encoded date                     : UTC 2011-06-29 23:03:42
Tagged date                      : UTC 2011-06-29 23:03:42

Video
ID                               : 1
Format                           : AVC
Format/Info                      : Advanced Video Codec
Format profile                   : High@L4.0
Format settings, CABAC           : Yes
Format settings, ReFrames        : 1 frame
Codec ID                         : avc1
Codec ID/Info                    : Advanced Video Coding
Duration                         : 2mn 49s
Bit rate mode                    : Variable
Bit rate                         : 5 299 Kbps
Maximum bit rate                 : 10.5 Mbps
Width                            : 1 920 pixels
Height                           : 1 080 pixels
Display aspect ratio             : 16:9
Frame rate mode                  : Variable
Frame rate                       : 23.976 fps
Minimum frame rate               : 17.241 fps
Maximum frame rate               : 24.390 fps
Color space                      : YUV
Chroma subsampling               : 4:2:0
Bit depth                        : 8 bits
Scan type                        : Progressive
Bits/(Pixel*Frame)               : 0.107
Stream size                      : 107 MiB (97%)
Tagged date                      : UTC 2011-06-29 23:03:45

Audio
ID                               : 2
Format                           : AAC
Format/Info                      : Advanced Audio Codec
Format version                   : Version 4
Format profile                   : LC
Format settings, SBR             : No
Codec ID                         : 40
Duration                         : 2mn 49s
Bit rate mode                    : Variable
Bit rate                         : 149 Kbps
Maximum bit rate                 : 180 Kbps
Channel(s)                       : 2 channels
Channel positions                : Front: L R
Sampling rate                    : 44.1 KHz
Stream size                      : 3.00 MiB (3%)
Encoded date                     : UTC 2011-06-29 23:03:44
Tagged date                      : UTC 2011-06-29 23:03:45

===================== SCREEN SHOTS===========================================

                    http://bayimg.com/DAJaJAADA
                    http://bayimg.com/dAJAKaAdA
                    http://bayimg.com/daJAmAAdA

===================================================================================
 ##  #  # # # # ### ### ###     ##  #   ###  #   ## ### ===========================
#   # # ### ### #   # #  #      # # #   #   # # #   # =============================  
#   # # ### ### ##  # #  #      ##  #   ##  ###  #  ##=============================  
#   # # # # # # #   # #  #      #   #   #   # #   # # =============================  
 ##  #  # # # # ### # #  #      #   ### ### # # ##  ###===========================
==================================================================================
                    